<svg xmlns="http://www.w3.org/2000/svg" viewBox="0 0 18 18" aria-hidden="true">
  <path fill="#000" d="M14.94 9.54c-.03-2.01 1.64-2.97 1.71-3.02-.93-1.36-2.38-1.55-2.89-1.57-1.23-.12-2.4.72-3.02.72-.63 0-1.58-.71-2.6-.69-1.34.02-2.57.78-3.26 1.98-1.39 2.41-.36 5.98 1 7.94.66.96 1.45 2.04 2.49 2 .99-.04 1.37-.64 2.57-.64 1.2 0 1.54.64 2.59.62 1.07-.02 1.75-.98 2.4-1.94.76-1.11 1.07-2.18 1.09-2.24-.02-.01-2.09-.8-2.11-3.18zm-1.98-5.84c.55-.67.92-1.6.82-2.53-.79.03-1.75.53-2.32 1.2-.51.59-.96 1.54-.84 2.45.89.07 1.8-.45 2.34-1.12z"/>
</svg>
