<svg xmlns="http://www.w3.org/2000/svg" width="1em" height="1em" viewBox="0 0 24 24"><path fill="currentColor" d="m20.3 22.7l-3.8-3.8q-.65.375-1.388.575T13 19.925V21h-2v-3.075q-1.125-.15-2.125-.575t-1.85-1.15l1.4-1.4q.65.525 1.45.863T12 16q2.075 0 3.538-1.463T17 11v-.175l2-2V11q0 .8-.188 1.563t-.537 1.462l1.45 1.45q.575-1.05.925-2.225T21 11h2q0 1.55-.425 2.963t-1.2 2.637l2.925 2.9zM12 14q.275 0 .513-.038t.462-.112L9.15 9.025Q9.075 9.25 9.038 9.488T9 10v1q0 1.25.875 2.125T12 14m7.5-7.675L12.175 13.65L9.85 11.325L17.175 4zM4.15 17.85l-1.4-1.4l2.55-2.55Q5.1 13.35 5.05 12.675T5 11h2q0 .425.05.838t.15.812zm4.7-4.7L7.275 11.575Q7.1 11.1 7.05 10.55T7 9.95V5q0-1.25.875-2.125T10 2q1.05 0 1.863.638T13.05 4.3L9.85 7.5z"/></svg>
